<?xml version="1.0" encoding="UTF-8"?>
<svg id="Layer_1" data-name="Layer 1" xmlns="http://www.w3.org/2000/svg" viewBox="0 0 3000 3000">
  <defs>
    <style>
      .cls-1 {
        stroke-width: 0px;
      }
    </style>
  </defs>
  <g>
    <path class="cls-1" d="m1970.86,2307.22c-5.61-62.36-19.85-124-42.8-182.29-9.56-24.28-38.71-83.57-70.75-114.62-16.46,6.35-35.28,12.22-56.35,17.58-11.85,3.01-24.28,5.81-37.2,8.42-.49,5.62-1.01,11.25-1.64,16.87-5.09,44.74,1.94,90.05,16.73,132.38,7.49,21.43,14.31,34.48,11.08,56.59-2,13.74-8.12,27.06-18.19,36.6s-24.26,15-38.04,13.38c-26.06-3.05-43.9-30.17-45.66-56.35-2.22-33.11,16.12-54.48,23.28-85.95,7.61-33.49,9.25-68.33,4.93-102.4-.12-.92-.24-1.84-.37-2.76-20,3.01-40.87,5.59-62.43,7.71,4.84,10.49,9.64,20.93,7.15,33.06-1.52,7.44-6.17,14.66-13.84,19.83-7.67,5.17-18.45,8.12-28.94,7.25-18.46-1.54-32.23-13.88-33.42-32.68-.51-7.98,1.51-15.36,4.25-22.57-28.69,1.54-58.18,2.34-88.14,2.34-52.3,0-103.2-2.41-150.79-7.01-9.83,30.6-12.17,63.68-5.95,94.95,3.95,19.81,15.86,28.27,16.84,48.83.59,12.44-2.39,25.26-9.7,35.34-4.3,5.94-10.14,10.9-17.02,13.43-29.26,10.76-51.75-19.74-49.09-46.03,1.48-14.67,7.48-20,11.72-34.01,11.97-39.62,15.05-79.38,4.58-118.12-36.69-4.98-70.73-11.38-101.06-19.08-21.08-5.35-39.89-11.23-56.35-17.58-32.04,31.05-61.19,90.34-70.75,114.62-22.94,58.28-37.19,119.92-42.8,182.29-8.3,92.3,3.22,209.09,45.03,306.11,42.1,97.69,114.91,175.33,229.12,187.7l8.94.97c61.54,6.67,123.39,10,185.22,10,.68,0,1.36,0,2.04,0,.68,0,1.37,0,2.04,0,61.84,0,123.67-3.33,185.22-10l8.94-.97c114.21-12.37,187.02-90.01,229.12-187.7,41.81-97.01,53.34-213.8,45.03-306.11Z"/>
    <path class="cls-1" d="m1815.51,1936.91c-5.28,4.97-18.6,11.1-26.51,14.49-4.4,1.88-7.96,5.27-10.1,9.54-7.47,14.88-10.68,31.73-12.69,49.33,91.96-19.38,150.52-48.62,150.52-81.34,0-58.36-186.35-95.01-416.22-95.01s-416.22,36.65-416.22,95.01c0,39.03,83.36,73.12,207.35,91.42-6.33-14.23-14.89-26.26-24-38.84-.05-.07-.11-.15-.16-.23-6.11-8.83-15.01-15.33-25.34-18.27-40.58-11.54-64.64-25.88-64.64-41.43,0-38.12,144.62-62.06,323.01-62.06s323.01,23.94,323.01,62.06c0,5.27-2.77,10.4-8,15.33Z"/>
    <path class="cls-1" d="m1536.17,1990.19c-5.9.14-11.81.24-17.71.31-5.99.07-11.98.1-17.97.1-21.15,0-41.82-.43-61.83-1.26-31.42-1.3-60.57,14.01-77.54,39.19,43.58,3.93,90.49,6.07,139.38,6.07,33.71,0,66.48-1.02,97.86-2.94,3.93-15.78.09-35.89-16.71-39.42-13.82-2.9-45.48-2.05-45.48-2.05Z"/>
    <path class="cls-1" d="m1695.55,1981.16c-5.84-3.92-12.73-2.57-19.25-1.89-5.79.61-11.5.98-16.54,4.28-9.88,6.47-11.55,19.7-13.07,30.28-.67,4.64-.74,9.38-.29,14.09,22.72-2.16,44.5-4.81,65.14-7.9-.79-3.51-1.65-7.01-2.6-10.48-2.48-9-5.05-22.79-13.38-28.39Z"/>
    <path class="cls-1" d="m1503.65,1021.89c-1.05-.01-2.1-.02-3.15-.02s-2.1,0-3.15.02c-32.15.39-63.32,6.8-63.32,19.23,0,14.49,31.18,36.28,49.63,52.5,15.33,13.48,18.34,13.48,33.66,0,18.45-16.23,49.63-38.02,49.63-52.5,0-12.42-31.17-18.83-63.32-19.23Z"/>
  </g>
  <path class="cls-1" d="m2727.95,2193.46c-3.96-15.35-9.12-30.55-15.34-45.17-22.2-52.25-57.98-96.37-103.48-127.58-46.13-31.64-99.92-48.36-155.55-48.36h0c-12.08,0-24.35.8-36.46,2.38-47.39,6.18-93.11,24.88-136.52,55.76,7.29-13.92,15.31-34.53,22.48-54.2,17.17-47.1,26.23-96.83,26.28-146.96,0-.31,0-.62,0-.93,0-229.46-98.48-436.54-256.56-583.41,64.55-47.82,101.85-104.33,101.85-164.86,0-36.81-13.8-72.14-39.13-104.92-13.88-17.96-20.26-40.64-17.45-63.16,2.4-19.22,3.63-38.74,3.63-58.52,0-100.3-31.65-194.19-86.77-274.58,67.23,1.96,116.95-25.32,136.93-99.91,27.33-101.99-33.31-233.54-140.58-262.28-107.27-28.74-214.01,36.38-241.33,138.37-1.83,6.81-3.14,13.52-3.99,20.13-85.47-38.39-182.54-60.09-285.46-60.09s-199.98,21.7-285.46,60.09c-.85-6.61-2.17-13.32-3.99-20.13-27.33-101.99-134.07-167.11-241.33-138.37-107.27,28.74-167.91,160.29-140.58,262.28,19.99,74.59,69.7,101.87,136.93,99.91-55.11,80.4-86.77,174.29-86.77,274.58,0,19.77,1.23,39.3,3.63,58.52,2.81,22.52-3.57,45.2-17.45,63.17-25.33,32.79-39.13,68.11-39.13,104.92,0,60.53,37.3,117.03,101.85,164.86-158.08,146.87-256.56,353.94-256.56,583.41,0,.31,0,.62,0,.93.06,50.13,9.11,99.86,26.28,146.96,7.17,19.67,15.19,40.28,22.48,54.2-43.41-30.87-89.12-49.57-136.52-55.76-12.11-1.58-24.38-2.38-36.46-2.38-55.63,0-109.42,16.72-155.56,48.36-45.5,31.2-81.28,75.32-103.48,127.58-6.21,14.63-11.37,29.82-15.34,45.17-8.82,34.15-9.83,71.73-3.01,111.7,5.62,32.93,16.58,67.74,32.6,103.46,49.35,110.09,124.92,209.84,212.8,280.86,33.92,27.41,71.09,50.39,107.5,66.45,43.5,19.19,86.1,28.92,126.6,28.92,17.15,0,34.05-1.78,50.25-5.28,25.56-5.53,49.86-15.67,72.24-30.13,2.59-1.67,5.13-3.4,7.63-5.16,28.66-6.51,56.87-14.91,84.42-25.18,35.21-13.13,65.3-37.16,86.17-68.41l8.58-12.86c-2.09-4.45-4.14-8.96-6.13-13.55-20.9-48.19-35.54-102.66-43.51-161.9-7.09-52.69-8.44-107.12-3.92-157.41,5.91-65.65,20.86-129.31,44.43-189.21,6.24-15.86,22.67-51.41,44.65-84.07,8.4-12.48,16.67-23.15,24.85-32.05-5.38-2.65-10.41-5.37-15.05-8.15-13.15-7.89-23.53-16.5-30.85-25.58-9.28-11.52-13.99-23.96-13.99-36.98s4.96-25.8,14.33-36.94c7.54-8.95,17.77-16.94,31.28-24.41,22.83-12.62,55.12-23.55,95.96-32.47,77.31-16.89,183.73-26.2,299.65-26.2s222.34,9.3,299.65,26.2c40.84,8.92,73.13,19.85,95.96,32.47,13.52,7.47,23.75,15.46,31.28,24.41,9.37,11.14,14.33,23.91,14.33,36.94s-4.71,25.47-13.99,36.98c-7.32,9.08-17.7,17.69-30.85,25.58-4.64,2.79-9.67,5.5-15.05,8.15,8.18,8.91,16.45,19.58,24.85,32.05,21.98,32.65,38.41,68.21,44.65,84.07,23.58,59.9,38.53,123.55,44.43,189.21,4.52,50.3,3.17,104.73-3.92,157.41-7.97,59.24-22.61,113.71-43.51,161.9-1.99,4.59-4.04,9.1-6.13,13.55l8.58,12.86c20.87,31.25,50.96,55.29,86.17,68.41,27.55,10.27,55.75,18.67,84.42,25.18,2.5,1.77,5.04,3.49,7.63,5.16,22.37,14.47,46.68,24.6,72.24,30.13,16.2,3.5,33.1,5.28,50.25,5.28,40.5,0,83.09-9.73,126.6-28.92,36.41-16.06,73.58-39.04,107.5-66.45,87.88-71.03,163.45-170.77,212.8-280.86,16.01-35.72,26.98-70.53,32.6-103.46,6.82-39.97,5.81-77.55-3.01-111.7ZM1686.23,702.7c32.08-8.6,68.88,24.69,82.18,74.34,13.3,49.65-1.92,96.87-34,105.47-32.08,8.6-68.88-24.69-82.18-74.34-13.3-49.65,1.92-96.87,34-105.47Zm-453.64,74.34c13.3-49.65,50.1-82.94,82.18-74.34s47.31,55.82,34,105.47c-13.3,49.65-50.1,82.94-82.18,74.34s-47.31-55.82-34-105.47Zm-323.57,1904.05c-27.43,37.15-68.61,63.89-113.69,73.86-.28.06-.56.13-.84.19-14.9,3.22-29.93,4.71-44.96,4.71-79.28,0-158.62-41.51-218.38-89.81-88.03-71.15-159.57-168.75-205.7-271.65-27.37-61.07-45.27-132.54-28.19-198.68,3.67-14.21,8.4-28.14,14.14-41.65,41.21-97.01,132.41-160.71,236.03-160.71,10.95,0,22.04.71,33.23,2.17,70.39,9.18,130.22,47.79,179.93,98.43,11,11.21,21.51,22.99,31.52,35.19,14.98,18.25,28.86,37.4,41.66,56.82,13.53,20.54,25.86,41.37,36.98,61.75,41.83,76.67,67.76,162.03,75.2,241.29,6.04,64.37,2.91,134.15-36.91,188.09Zm150.45-1168.7c-38.23,57.01-63.81,123.4-76.01,197.33-11.22,67.95-6.29,138.45-1.52,206.62,2.39,34.21,4.87,69.59,5.32,104.51.5,38.15-.38,78.4-16.72,114.27-14.25,31.28-38.69,51.54-70.67,58.57-7.96,1.75-16.28,2.6-24.77,2.6-2.59,0-5.2-.09-7.81-.25-7.26-11.72-14.64-23.02-22.14-33.87-2.75-3.98-5.52-7.89-8.3-11.76,2.78,3.86,5.55,7.78,8.3,11.76,16.55,4.58,33.28,5.51,48.27,2.21,22.72-5,39.48-19.03,49.81-41.71,13.77-30.22,14.48-66.68,14.02-101.44-.45-34.06-2.89-69.01-5.25-102.81-4.89-69.9-9.95-142.17,1.85-213.6,12.91-78.19,40.06-148.56,80.69-209.15,4.61-6.88,13.93-8.72,20.81-4.1,6.88,4.61,8.72,13.93,4.1,20.81Zm-55.69-982.2c-50.88,5.17-88.81-11.45-103.26-65.41-18.12-67.62,22.09-154.84,93.2-173.89s141.89,24.12,160,91.74c2.04,7.6,3.13,15.01,3.38,22.21-58.96,33.96-110.84,76.42-153.32,125.35Zm869.8,739.95c-21.34,29.43-51.52,55.65-89.71,77.93-15.44,9.01-31.92,17.18-49.23,24.51-67.98,28.78-149.15,44.32-234.14,44.32s-166.16-15.54-234.14-44.32c-17.31-7.33-33.78-15.5-49.23-24.51-38.19-22.28-68.37-48.49-89.71-77.93-23.13-31.9-34.85-66.09-34.85-101.63,0-15.64,2.27-31.01,6.78-46.04,5.74-19.14,15.12-37.72,28.07-55.58,21.34-29.43,51.52-55.65,89.71-77.93,76.09-44.39,176.73-68.83,283.37-68.83s207.28,24.45,283.37,68.83c38.19,22.28,68.37,48.49,89.71,77.93,12.95,17.86,22.33,36.45,28.07,55.58,4.51,15.03,6.78,30.41,6.78,46.04,0,35.54-11.73,69.73-34.85,101.63Zm-29.68-865.3c.25-7.2,1.34-14.62,3.38-22.21,18.12-67.62,88.89-110.79,160-91.74s111.32,106.27,93.2,173.89c-14.46,53.96-52.39,70.58-103.26,65.41-42.48-48.94-94.36-91.39-153.32-125.35Zm186.56,1730.27c-16.34-35.86-17.22-76.11-16.72-114.27.46-34.91,2.93-70.29,5.33-104.51,4.77-68.17,9.7-138.67-1.52-206.62-12.2-73.93-37.78-140.32-76.01-197.33-4.61-6.88-2.78-16.2,4.1-20.81,6.88-4.62,16.2-2.78,20.81,4.1,40.64,60.59,67.79,130.96,80.69,209.15,11.79,71.42,6.74,143.7,1.85,213.6-2.36,33.8-4.81,68.74-5.25,102.8-.45,34.76.25,71.22,14.02,101.44,10.33,22.68,27.09,36.71,49.81,41.71,14.99,3.3,31.72,2.36,48.27-2.22-7.5,10.85-14.88,22.15-22.14,33.87-2.62.16-5.23.25-7.81.25-8.49,0-16.8-.85-24.77-2.6-31.98-7.03-56.42-27.29-70.67-58.57Zm645.1,263.29c-46.12,102.9-117.67,200.5-205.7,271.65-59.76,48.31-139.1,89.81-218.38,89.81-15.04,0-30.06-1.49-44.96-4.71-.28-.06-.56-.13-.84-.19-45.08-9.97-86.27-36.71-113.69-73.86-39.82-53.94-42.95-123.72-36.91-188.09,7.44-79.26,33.37-164.62,75.2-241.29,11.12-20.38,23.44-41.22,36.98-61.75,12.8-19.42,26.68-38.57,41.66-56.82,10.01-12.19,20.52-23.98,31.52-35.19,49.71-50.64,109.54-89.25,179.93-98.43,11.18-1.46,22.27-2.17,33.23-2.17,103.62,0,194.82,63.71,236.03,160.71,5.74,13.51,10.47,27.44,14.14,41.65,17.08,66.15-.82,137.62-28.19,198.68Z"/>
</svg>