<?xml version="1.0" encoding="UTF-8"?>
<svg id="Layer_1" data-name="Layer 1" xmlns="http://www.w3.org/2000/svg" viewBox="0 0 2218.47 2263.32">
  <defs>
    <style>
      .cls-1, .cls-2 {
        stroke-width: 0px;
      }

      .cls-2 {
        fill: #ec008c;
      }
    </style>
  </defs>
  <path class="cls-2" d="m1109.23,1098.96c3.22,0,3.22-5,0-5s-3.22,5,0,5h0Z"/>
  <g>
    <path class="cls-1" d="m2212.56,1110.22c-13.16-146.29-46.57-290.88-100.39-427.59-23.96-60.86-100.38-215.5-181.49-282.89-35.76,13.33-76.23,25.75-121.23,37.17-25.84,6.56-52.87,12.72-81,18.47-1.69,19.56-3.29,39.29-5.52,58.9-11.95,104.94,4.54,211.24,39.25,310.53,17.57,50.27,33.57,80.88,26,132.75-4.7,32.22-19.04,63.47-42.68,85.86-23.64,22.39-56.9,35.18-89.24,31.4-61.14-7.16-102.98-70.76-107.1-132.18-5.22-77.68,37.82-127.78,54.6-201.62,17.85-78.57,21.7-160.27,11.57-240.19-1.06-8.32-2.23-16.64-3.55-24.93-37.91,5.69-77.36,10.74-118.23,15.13-10.99,1.18-22.05,2.29-33.16,3.36,1.55,4.3,3.26,8.53,5.14,12.65,12.1,26.44,25.52,52.42,19.26,82.96-3.58,17.46-14.48,34.38-32.47,46.51-17.98,12.13-43.28,19.06-67.88,17.01-43.29-3.61-75.59-32.57-78.4-76.67-1.64-25.79,7.97-48.92,17.74-72.05-69.95,3.94-141.65,5.94-214.53,5.94-119.82,0-236.45-5.38-347.31-15.98-1.49,3.69-2.89,7.43-4.18,11.24-24.98,73.7-31.25,153.93-16.17,229.65,9.25,46.47,37.21,66.31,39.5,114.53,1.38,29.17-5.61,59.25-22.75,82.91-10.09,13.93-23.78,25.56-39.92,31.49-68.63,25.23-121.39-46.31-115.15-107.98,3.48-34.4,17.55-46.91,27.48-79.78,30.1-99.65,36.25-199.67,4.92-296.74-82.87-11.5-158.82-25.95-226.63-43.17-45-11.42-85.48-23.85-121.23-37.17-81.11,67.39-157.54,222.03-181.49,282.89C52.48,819.34,19.07,963.93,5.91,1110.22c-38.15,424.1,102.13,1068.62,605.29,1153.1-115.35-71.44-186.05-167.68-186.05-273.57,0-220.4,306.27-399.06,684.08-399.06s684.08,178.67,684.08,399.06c0,105.88-70.7,202.13-186.05,273.57,503.16-84.49,643.44-729.01,605.29-1153.1Zm-1374.37,235.82c-23.77,88.7-89.5,148.16-146.81,132.8-57.31-15.36-84.51-99.71-60.74-188.42,23.77-88.7,89.5-148.16,146.81-132.8s84.51,99.71,60.74,188.42Zm688.91,132.8c-57.31,15.36-123.05-44.1-146.81-132.8-23.77-88.7,3.43-173.06,60.74-188.42,57.31-15.36,123.05,44.1,146.81,132.8s-3.43,173.06-60.74,188.42Z"/>
    <path class="cls-1" d="m1598.17,411.98c-5.82-21.11-11.85-53.46-31.39-66.58-13.71-9.21-29.86-6.03-45.16-4.43-13.58,1.42-26.98,2.29-38.79,10.03-23.17,15.19-27.08,46.2-30.65,71.03-1.56,10.87-1.73,22-.69,33.05,53.3-5.07,104.39-11.28,152.8-18.52-1.85-8.24-3.87-16.44-6.12-24.58Z"/>
    <path class="cls-1" d="m1338.79,463.85c9.23-37.02.21-84.2-39.2-92.46-32.41-6.8-106.68-4.82-106.68-4.82-13.84.33-27.69.57-41.54.73-14.05.16-28.1.25-42.14.25-49.61,0-98.1-1.02-145.04-2.97-73.72-3.06-142.13,32.84-181.94,91.92,102.23,9.22,212.29,14.25,326.98,14.25,79.07,0,155.94-2.39,229.56-6.89Z"/>
    <path class="cls-1" d="m619.29,437.32c-14.85-33.39-34.93-61.6-56.29-91.11-.12-.17-.25-.35-.38-.54-14.34-20.7-35.22-35.97-59.44-42.85-95.2-27.07-151.62-60.72-151.62-97.18,0-89.42,339.22-145.58,757.68-145.58s757.68,56.16,757.68,145.58c0,12.36-6.49,24.39-18.76,35.96-12.39,11.67-43.64,26.05-62.19,33.99-10.31,4.41-18.67,12.36-23.7,22.38-17.53,34.91-25.05,74.44-29.76,115.71,215.71-45.47,353.08-114.06,353.08-190.8C2085.57,85.98,1648.45,0,1109.23,0S132.9,85.98,132.9,222.87c0,91.56,195.55,171.52,486.39,214.45Z"/>
  </g>
  <path class="cls-1" d="m1228.32,1764.72c0-45.98-238.18-45.98-238.18,0,0,25.96,55.88,65,88.93,94.08,27.46,24.16,32.85,24.16,60.32,0,33.06-29.08,88.93-68.12,88.93-94.08Z"/>
</svg>